<?xml version="1.0" encoding="utf-8"?>
<!-- Generator: Adobe Illustrator 24.1.1, SVG Export Plug-In . SVG Version: 6.00 Build 0)  -->
<svg version="1.1" id="Capa_1" xmlns="http://www.w3.org/2000/svg" xmlns:xlink="http://www.w3.org/1999/xlink" x="0px" y="0px"
	 viewBox="0 0 30 30" style="enable-background:new 0 0 30 30;" xml:space="preserve">
<style type="text/css">
	.st0{fill:#063FF2;}
</style>
<g>
	<path d="M13.26,18.86h-1.3v-4.57h-1.61V13.4c0.47-0.01,0.87-0.14,1.19-0.37c0.32-0.24,0.51-0.53,0.58-0.89h1.14V18.86z"/>
	<path d="M14.04,15.5c0-1.01,0.2-1.81,0.59-2.4c0.49-0.74,1.21-1.11,2.16-1.11c0.96,0,1.68,0.37,2.17,1.11
		c0.4,0.61,0.6,1.41,0.6,2.4c0,0.98-0.2,1.77-0.6,2.39C18.47,18.63,17.75,19,16.79,19c-0.95,0-1.67-0.37-2.16-1.11
		C14.24,17.31,14.04,16.51,14.04,15.5z M15.35,15.5c0,0.83,0.14,1.43,0.42,1.82c0.25,0.35,0.59,0.52,1.02,0.52
		c0.44,0,0.78-0.17,1.03-0.52c0.28-0.39,0.43-1,0.43-1.82c0-0.82-0.14-1.43-0.43-1.82c-0.25-0.35-0.6-0.52-1.03-0.52
		c-0.43,0-0.77,0.17-1.02,0.52C15.49,14.07,15.35,14.68,15.35,15.5z"/>
</g>
<g>
	<path class="st0" d="M18.56,3.01L3.17,18.4c0.18,0.71,0.41,1.39,0.7,2.05l6.48,6.48c0.57,0.25,1.16,0.46,1.78,0.63l15.6-15.6
		c-0.16-0.59-0.36-1.17-0.6-1.72l-6.56-6.56C19.92,3.4,19.25,3.18,18.56,3.01z M15.46,22c-3.59,0-6.5-2.91-6.5-6.5
		c0-3.59,2.91-6.5,6.5-6.5c3.59,0,6.5,2.91,6.5,6.5C21.96,19.09,19.05,22,15.46,22z"/>
</g>
<g>
	<g>
		<path d="M15.19,28.79c-7.59,0-13.76-6.17-13.76-13.76c0-7.59,6.17-13.76,13.76-13.76c7.59,0,13.76,6.17,13.76,13.76
			C28.95,22.62,22.78,28.79,15.19,28.79z M15.19,3.39c-6.42,0-11.64,5.22-11.64,11.64c0,6.42,5.22,11.64,11.64,11.64
			c6.42,0,11.64-5.22,11.64-11.64C26.83,8.61,21.61,3.39,15.19,3.39z"/>
	</g>
</g>
<g>
	<path d="M15.19,23.04c-4.31,0-7.81-3.5-7.81-7.81s3.5-7.81,7.81-7.81S23,10.92,23,15.23S19.5,23.04,15.19,23.04z M15.19,9.71
		c-3.04,0-5.52,2.47-5.52,5.52s2.47,5.52,5.52,5.52s5.52-2.47,5.52-5.52S18.23,9.71,15.19,9.71z"/>
</g>
<g>
	<path d="M13.82,28.3l-1.5-1.5L27.13,12l1.5,1.5L13.82,28.3z M3.29,18.53l-1.5-1.5l15.4-15.4l1.5,1.5L3.29,18.53z"/>
</g>
</svg>
