<?xml version="1.0" encoding="utf-8"?>
<!-- Generator: Adobe Illustrator 24.1.1, SVG Export Plug-In . SVG Version: 6.00 Build 0)  -->
<svg version="1.1" id="Capa_1" xmlns="http://www.w3.org/2000/svg" xmlns:xlink="http://www.w3.org/1999/xlink" x="0px" y="0px"
	 viewBox="0 0 30 30" style="enable-background:new 0 0 30 30;" xml:space="preserve">
<path d="M15.34,1.1C7.75,1.1,1.58,7.27,1.58,14.86c0,7.59,6.17,13.76,13.76,13.76c7.59,0,13.76-6.17,13.76-13.76
	C29.1,7.27,22.93,1.1,15.34,1.1z M15.34,20c-2.84,0-5.14-2.3-5.14-5.14s2.3-5.14,5.14-5.14c2.84,0,5.14,2.3,5.14,5.14
	S18.18,20,15.34,20z"/>
<g>
	<path d="M12.89,17.13c0-0.98,0.59-1.68,1.55-2.09l-0.01-0.04c-0.86-0.41-1.24-1.08-1.24-1.75c0-1.24,1.04-2.08,2.41-2.08
		c1.51,0,2.27,0.95,2.27,1.92c0,0.66-0.32,1.37-1.28,1.82v0.04c0.97,0.38,1.57,1.07,1.57,2.02c0,1.36-1.16,2.27-2.65,2.27
		C13.87,19.24,12.89,18.27,12.89,17.13z M17.09,17.08c0-0.95-0.66-1.4-1.71-1.7c-0.91,0.26-1.4,0.86-1.4,1.61
		c-0.04,0.79,0.56,1.49,1.56,1.49C16.47,18.48,17.09,17.89,17.09,17.08z M14.18,13.19c0,0.78,0.59,1.2,1.49,1.44
		c0.67-0.23,1.19-0.71,1.19-1.42c0-0.62-0.37-1.27-1.32-1.27C14.66,11.94,14.18,12.52,14.18,13.19z"/>
</g>
</svg>
