<?xml version="1.0" encoding="utf-8"?>
<!-- Generator: Adobe Illustrator 24.1.1, SVG Export Plug-In . SVG Version: 6.00 Build 0)  -->
<svg version="1.1" id="Capa_1" xmlns="http://www.w3.org/2000/svg" xmlns:xlink="http://www.w3.org/1999/xlink" x="0px" y="0px"
	 viewBox="0 0 30 30" style="enable-background:new 0 0 30 30;" xml:space="preserve">
<style type="text/css">
	.st0{fill:#F3C604;}
</style>
<g>
	<path d="M12.68,18.89l0.43-1.34c0.43,0.24,0.94,0.36,1.52,0.36c0.84,0,1.5-0.22,1.98-0.67c0.48-0.45,0.74-1.07,0.78-1.87
		c-0.17,0.28-0.43,0.51-0.79,0.68c-0.36,0.18-0.77,0.26-1.23,0.26c-0.81,0-1.5-0.26-2.07-0.78c-0.57-0.52-0.86-1.21-0.86-2.08
		c0-0.86,0.31-1.57,0.92-2.13c0.61-0.56,1.38-0.83,2.3-0.83c0.96,0,1.76,0.34,2.41,1.03s0.97,1.67,0.97,2.95
		c0,1.55-0.37,2.75-1.12,3.61c-0.75,0.85-1.83,1.28-3.26,1.28c-0.36,0-0.73-0.04-1.1-0.13S12.88,19.03,12.68,18.89z M16.71,14.49
		c0.31-0.28,0.46-0.65,0.46-1.09s-0.15-0.8-0.46-1.08c-0.31-0.28-0.67-0.42-1.1-0.42c-0.43,0-0.8,0.14-1.1,0.42
		c-0.3,0.28-0.46,0.64-0.46,1.08c0,0.46,0.15,0.82,0.45,1.1c0.3,0.28,0.67,0.41,1.11,0.41C16.04,14.92,16.41,14.78,16.71,14.49z"/>
</g>
<g>
	<path class="st0" d="M18.56,3.01L3.17,18.4c0.18,0.71,0.41,1.39,0.7,2.05l6.48,6.48c0.57,0.25,1.16,0.46,1.78,0.63l15.6-15.6
		c-0.16-0.59-0.36-1.17-0.6-1.72l-6.56-6.56C19.92,3.4,19.25,3.18,18.56,3.01z M15.46,22c-3.59,0-6.5-2.91-6.5-6.5
		c0-3.59,2.91-6.5,6.5-6.5c3.59,0,6.5,2.91,6.5,6.5C21.96,19.09,19.05,22,15.46,22z"/>
</g>
<g>
	<g>
		<path d="M15.19,28.79c-7.59,0-13.76-6.17-13.76-13.76c0-7.59,6.17-13.76,13.76-13.76c7.59,0,13.76,6.17,13.76,13.76
			C28.95,22.62,22.78,28.79,15.19,28.79z M15.19,3.39c-6.42,0-11.64,5.22-11.64,11.64c0,6.42,5.22,11.64,11.64,11.64
			c6.42,0,11.64-5.22,11.64-11.64C26.83,8.61,21.61,3.39,15.19,3.39z"/>
	</g>
</g>
<g>
	<path d="M15.19,23.04c-4.31,0-7.81-3.5-7.81-7.81s3.5-7.81,7.81-7.81S23,10.92,23,15.23S19.5,23.04,15.19,23.04z M15.19,9.71
		c-3.04,0-5.52,2.47-5.52,5.52s2.47,5.52,5.52,5.52s5.52-2.47,5.52-5.52S18.23,9.71,15.19,9.71z"/>
</g>
<g>
	<path d="M13.82,28.3l-1.5-1.5L27.13,12l1.5,1.5L13.82,28.3z M3.29,18.53l-1.5-1.5l15.4-15.4l1.5,1.5L3.29,18.53z"/>
</g>
</svg>
