<?xml version="1.0" encoding="utf-8"?>
<!-- Generator: Adobe Illustrator 22.1.0, SVG Export Plug-In . SVG Version: 6.00 Build 0)  -->
<svg version="1.1" id="Capa_1" xmlns="http://www.w3.org/2000/svg" xmlns:xlink="http://www.w3.org/1999/xlink" x="0px" y="0px"
	 width="307.9px" height="50.5px" viewBox="0 0 307.9 50.5" style="enable-background:new 0 0 307.9 50.5;" xml:space="preserve">
<style type="text/css">
	.st0{fill:#FFFFFF;}
</style>
<g>
	<polygon class="st0" points="139.1,13.5 133.5,43.4 141.9,43.4 147.6,13.5 	"/>
	<g>
		<polygon class="st0" points="271,35.8 262.5,35.8 261,43.4 297.1,43.4 298.5,35.8 271,35.8 		"/>
		<polygon class="st0" points="263.1,32.7 271.1,35.7 273.8,20.9 292.9,20.9 290.6,32.7 298.5,35.8 302.8,13.5 266.8,13.5 		"/>
		<polygon class="st0" points="141.9,43.4 168.8,43.4 170.2,35.8 147.2,35.8 		"/>
		<polygon class="st0" points="146.2,20.9 173.1,20.9 174.5,13.5 151,13.5 		"/>
		<polygon class="st0" points="184.4,43.4 211.3,43.4 212.9,35.8 189.5,35.8 		"/>
		<polygon class="st0" points="204.6,24.3 191.4,24.3 186.6,31.1 203.3,31.1 		"/>
		<polygon class="st0" points="188.6,20.9 215.6,20.9 217,13.5 193.4,13.5 		"/>
		<polygon class="st0" points="188.5,20.9 190.1,13.5 181.5,13.5 175.7,43.4 184.4,43.4 		"/>
		<polygon class="st0" points="227.1,43.4 253.8,43.4 255.3,35.8 231.6,35.8 		"/>
		<polygon class="st0" points="224.2,13.5 218.6,43.4 227,43.4 232.7,13.5 		"/>
		<path class="st0" d="M303.1,7.8c-0.8,0.4-8,3.5-8.3,3.7l-1.8,0.9l10.1,0l0.9-4.9L303.1,7.8z"/>
	</g>
	<polygon class="st0" points="47.1,43.4 55.6,43.4 57.6,32.5 73.5,32.5 78.3,25.7 58.9,25.7 59.7,20.9 79.1,20.9 74.9,43.4 
		83.3,43.4 89,13.5 52.7,13.5 	"/>
	<polygon class="st0" points="96,13.5 90.3,43.4 98.7,43.4 103,20.9 122.5,20.9 121.6,25.7 130.6,22.6 132.3,13.5 	"/>
	<polygon class="st0" points="7.9,22.1 15.7,25.1 16.6,20.9 35.8,20.9 35.1,25.1 7.4,25.1 6,32.5 13.7,35.8 14.5,31.5 33.8,31.5 
		33,35.8 5.4,35.8 3.9,43.4 40,43.4 45.6,13.5 9.5,13.5 	"/>
	<polygon class="st0" points="118.2,43.4 126.6,43.4 129.9,25.7 105.5,25.7 100.8,32.5 120.2,32.5 	"/>
</g>
</svg>
